<?xml version="1.0" encoding="UTF-8" standalone="no"?>
<!-- Created with Inkscape (http://www.inkscape.org/) -->

<svg
   xmlns:dc="http://purl.org/dc/elements/1.1/"
   xmlns:cc="http://creativecommons.org/ns#"
   xmlns:rdf="http://www.w3.org/1999/02/22-rdf-syntax-ns#"
   xmlns:svg="http://www.w3.org/2000/svg"
   xmlns="http://www.w3.org/2000/svg"
   xmlns:sodipodi="http://sodipodi.sourceforge.net/DTD/sodipodi-0.dtd"
   xmlns:inkscape="http://www.inkscape.org/namespaces/inkscape"
   id="svg2"
   version="1.1"
   inkscape:version="0.91 r"
   width="167.28"
   height="153.53999"
   viewBox="0 0 167.28 153.53999"
   sodipodi:docname="satshakit_mini_fc_pin_mapping.svg">
  <metadata
     id="metadata8">
    <rdf:RDF>
      <cc:Work
         rdf:about="">
        <dc:format>image/svg+xml</dc:format>
        <dc:type
           rdf:resource="http://purl.org/dc/dcmitype/StillImage" />
        <dc:title></dc:title>
      </cc:Work>
    </rdf:RDF>
  </metadata>
  <defs
     id="defs6" />
  <sodipodi:namedview
     pagecolor="#ffffff"
     bordercolor="#666666"
     borderopacity="1"
     objecttolerance="10"
     gridtolerance="10"
     guidetolerance="10"
     inkscape:pageopacity="0"
     inkscape:pageshadow="2"
     inkscape:window-width="1920"
     inkscape:window-height="1025"
     id="namedview4"
     showgrid="false"
     inkscape:zoom="1.8868766"
     inkscape:cx="47.833329"
     inkscape:cy="22.384325"
     inkscape:window-x="-2"
     inkscape:window-y="-3"
     inkscape:window-maximized="1"
     inkscape:current-layer="svg2"
     showguides="false" />
  <path
     style="fill:#000000"
     d="M 0,76.770009 0,2.2389648e-5 l 83.64,0 83.64,0 0,76.769986610352 0,76.769991 -83.64,0 -83.64,0 0,-76.769991 z m 31.17398,66.084511 c 0.48051,-0.0884 1.12304,-0.39562 1.53676,-0.7348 l 0.34073,-0.27936 50.44926,-0.0152 50.44927,-0.0152 0.36,-0.16791 c 0.30826,-0.14377 0.62751,-0.43481 2.22125,-2.025 1.74085,-1.73695 1.87501,-1.85709 2.07398,-1.85709 0.64731,0 1.53499,-0.32833 2.04332,-0.75577 0.1532,-0.12882 1.4087,-1.38224 2.79,-2.78535 1.78013,-1.80826 2.56018,-2.64178 2.6788,-2.86244 0.24334,-0.45266 0.39539,-0.93403 0.4384,-1.3879 l 0.0378,-0.39853 3.35069,-3.36 c 2.9595,-2.96772 3.37025,-3.40203 3.51824,-3.72 l 0.16755,-0.36 0.0158,-10.79004 0.0158,-10.79003 0.27872,-0.33997 c 0.33861,-0.413011 0.64584,-1.055761 0.73418,-1.535981 0.0898,-0.48839 0.0898,-7.43957 0,-7.92796 -0.0884,-0.48046 -0.39561,-1.12303 -0.7347,-1.53663 l -0.27925,-0.3406 -0.0153,-31.369397 -0.0153,-31.36939 -0.16798,-0.36 c -0.1429,-0.30627 -0.42298,-0.61565 -1.87659,-2.07294 l -1.70861,-1.71295 0.10101,-0.26705 c 0.14861,-0.39288 0.14836,-1.47882 -6e-4,-1.91706 -0.28986,-0.85368 -0.32096,-0.89038 -3.18386,-3.75736 -1.73046,-1.73292 -2.80892,-2.7678 -2.99634,-2.87528 -0.47514,-0.27248 -1.04174,-0.44997 -1.56222,-0.48938 -0.2978,-0.0225 -0.58916,-0.0852 -0.75496,-0.16234 l -0.27,-0.12564 -51.52926,-0.0152 -51.52926,-0.0152 -0.34074,-0.27935 c -0.41372,-0.33919 -1.05625,-0.64642 -1.53676,-0.73481 -0.48214,-0.0887 -7.43652,-0.0899 -7.92796,-10e-4 -0.58711,0.10576 -1.28178,0.4783 -1.73269,0.9292 -1.30997,1.30998 -1.30997,3.42337 0,4.73334 0.45091,0.45091 1.14558,0.82344 1.73269,0.9292 0.49144,0.0885 7.44582,0.0873 7.92796,-0.001 0.48059,-0.0884 1.12306,-0.39563 1.53697,-0.73498 l 0.34111,-0.27953 50.31592,0 c 47.86713,0 50.31757,0.005 50.34957,0.105 0.0185,0.0577 0.12939,0.3075 0.24644,0.555 0.20301,0.4293 0.33597,0.57325 2.88948,3.12833 1.47217,1.47308 2.79818,2.75358 2.94668,2.84555 0.1485,0.092 1.15425,1.04658 2.235,2.12133 l 1.965,1.95411 0,30.61939 0,30.619377 -0.27953,0.34095 c -0.33935,0.41392 -0.64657,1.05639 -0.73498,1.53698 -0.0898,0.48839 -0.0898,7.43957 0,7.92796 0.0884,0.48059 0.39563,1.12306 0.73498,1.536971 l 0.27953,0.34095 0,10.03985 0,10.03985 -2.87509,2.83419 c -2.65665,2.61888 -2.89057,2.83421 -3.07898,2.83421 -0.63865,0 -1.53008,0.33124 -2.0339,0.75577 -0.15289,0.12882 -1.40839,1.38213 -2.79,2.78513 -1.78383,1.81143 -2.56054,2.64121 -2.67938,2.86243 -0.24144,0.44946 -0.39474,0.93178 -0.44122,1.38813 l -0.0406,0.39854 -1.35027,1.395 -1.35027,1.395 -49.7042,0 -49.70419,0 -0.34096,-0.27953 c -0.41391,-0.33935 -1.05638,-0.64657 -1.53697,-0.73498 -0.48214,-0.0887 -7.43652,-0.0899 -7.92796,-0.001 -0.58711,0.10575 -1.28178,0.47829 -1.73269,0.9292 -1.62017,1.62017 -1.16571,4.37493 0.88481,5.36338 0.27052,0.1304 0.62686,0.26247 0.79186,0.29348 0.43724,0.0822 7.53984,0.086 7.98398,0.004 z m -4.3921,-1.55627 c -0.52925,-0.16347 -1.08165,-0.73885 -1.22774,-1.2788 -0.20866,-0.77123 0.20083,-1.61853 0.98253,-2.03304 0.36122,-0.19153 1.10544,-0.19153 1.46666,0 0.37646,0.19962 0.63211,0.44744 0.82989,0.80447 0.15438,0.2787 0.17678,0.37995 0.17678,0.79913 0,0.41918 -0.0224,0.52043 -0.17678,0.79913 -0.32523,0.5871 -0.83751,0.91676 -1.47322,0.94803 -0.2145,0.0106 -0.47465,-0.007 -0.57812,-0.0389 z m 113.64,-7.56 c -0.52925,-0.16347 -1.08165,-0.73885 -1.22774,-1.2788 -0.20866,-0.77123 0.20082,-1.61853 0.98253,-2.03303 0.36122,-0.19154 1.10544,-0.19154 1.46666,0 0.37646,0.19961 0.63211,0.44743 0.82989,0.80446 0.15438,0.2787 0.17678,0.37995 0.17678,0.79913 0,0.41918 -0.0224,0.52043 -0.17678,0.79913 -0.32523,0.5871 -0.83751,0.91676 -1.47322,0.94803 -0.2145,0.0106 -0.47465,-0.007 -0.57812,-0.0389 z m 10.5,-37.319991 c -0.52925,-0.16348 -1.08165,-0.73886 -1.22774,-1.27881 -0.20866,-0.77123 0.20082,-1.61853 0.98253,-2.03303 0.36122,-0.19154 1.10544,-0.19154 1.46666,0 0.37646,0.19962 0.63211,0.44744 0.82989,0.80446 0.15438,0.2787 0.17678,0.37995 0.17678,0.79913 0,0.41919 -0.0224,0.52044 -0.17678,0.79914 -0.32523,0.5871 -0.83751,0.91676 -1.47322,0.94803 -0.2145,0.0105 -0.47465,-0.007 -0.57812,-0.0389 z m -6.96,-76.259997 c -0.52925,-0.16347 -1.08165,-0.73885 -1.22774,-1.2788 -0.20866,-0.77123 0.20082,-1.61854 0.98253,-2.03303 0.36122,-0.19154 1.10544,-0.19154 1.46666,0 0.37646,0.19961 0.63211,0.44743 0.82989,0.80446 0.15438,0.27869 0.17678,0.37994 0.17678,0.79913 0,0.41918 -0.0224,0.52043 -0.17678,0.79913 -0.32523,0.5871 -0.83751,0.91676 -1.47322,0.94803 -0.2145,0.0105 -0.47465,-0.007 -0.57812,-0.0389 z m -112.08,-3.78 c -0.52925,-0.16347 -1.08165,-0.73885 -1.22774,-1.2788 -0.20866,-0.77123 0.20083,-1.61854 0.98253,-2.03303 0.36122,-0.19154 1.10544,-0.19154 1.46666,0 0.37646,0.19961 0.63211,0.44743 0.82989,0.80446 0.15438,0.2787 0.17678,0.37994 0.17678,0.79913 0,0.41918 -0.0224,0.52043 -0.17678,0.79913 -0.32523,0.5871 -0.83751,0.91676 -1.47322,0.94803 -0.2145,0.0105 -0.47465,-0.007 -0.57812,-0.0389 z m 95.27155,117.230788 c 0.27633,-0.12951 0.65448,-0.46366 1.93524,-1.71 l 1.59181,-1.54904 0.43348,-0.0447 c 0.51134,-0.0528 0.90243,-0.17157 1.39604,-0.4241 0.29915,-0.15303 0.81256,-0.63607 3.03735,-2.85766 1.71199,-1.70953 2.7379,-2.77908 2.84528,-2.96633 0.25992,-0.45321 0.44329,-1.01914 0.48416,-1.49429 l 0.0372,-0.43288 2.1802,-2.19 c 1.88363,-1.8921 2.20303,-2.23897 2.34799,-2.55 l 0.16779,-0.36 0.016,-8.21033 0.0161,-8.21033 0.27848,-0.33967 c 0.33839,-0.412741 0.64562,-1.055581 0.73394,-1.535691 0.0898,-0.48839 0.0898,-7.43957 0,-7.92796 -0.0884,-0.48045 -0.39561,-1.12303 -0.73469,-1.53661 l -0.27923,-0.34059 -0.0153,-30.019407 -0.0153,-30.01941 -0.1368,-0.29669 c -0.0752,-0.16319 -0.19927,-0.37919 -0.27562,-0.48 -0.10086,-0.13318 -0.14942,-0.29919 -0.17758,-0.6071 -0.0435,-0.4759 -0.19428,-0.96051 -0.44265,-1.42287 -0.11884,-0.22122 -0.89555,-1.051 -2.67938,-2.86243 -1.38161,-1.403 -2.63711,-2.65631 -2.79,-2.78513 -0.36965,-0.31148 -1.02768,-0.61131 -1.53579,-0.6998 -0.45922,-0.08 -1.18087,-0.0413 -1.44957,0.0776 -0.1392,0.0616 -10.46372,0.0822 -53.33261,0.10641 l -53.16,0.03 -0.35519,0.1662 c -0.25426,0.11898 -0.53558,0.34273 -0.99,0.78741 l -0.63481,0.62121 -0.39854,0.0386 c -0.45451,0.044 -0.93606,0.19639 -1.38812,0.43923 -0.22123,0.11884 -1.051,0.89555 -2.86244,2.67938 -1.40299,1.38161 -2.6563,2.63711 -2.78513,2.79 -0.5145,0.6106 -0.80513,1.5524 -0.73501,2.38189 0.0992,1.17296 0.8176,2.22193 1.86829,2.72782 1.0349,0.49828 2.11175,0.4628 3.16761,-0.10439 0.22123,-0.11884 1.051,-0.89555 2.86244,-2.67938 1.40299,-1.38161 2.6563,-2.63711 2.78513,-2.79 0.4347,-0.51589 0.75577,-1.39497 0.75577,-2.06927 0,-0.13843 0.0419,-0.28549 0.0993,-0.34898 0.096,-0.10613 1.78082,-0.10972 51.5251,-0.10972 l 51.4258,0 0.1499,0.2847 c 0.10081,0.19147 0.97227,1.11978 2.66135,2.835 1.3813,1.40266 2.6368,2.6557 2.79,2.78453 0.29132,0.24496 0.9797,0.59286 1.31355,0.66384 l 0.195,0.0415 0,28.91928 0,28.919277 -0.27953,0.34095 c -0.33935,0.41391 -0.64657,1.05638 -0.73498,1.53697 -0.0898,0.48839 -0.0898,7.43957 0,7.92796 0.0884,0.48059 0.39563,1.12306 0.73498,1.536981 l 0.27953,0.34095 0,7.45944 0,7.45944 -1.695,1.68782 -1.695,1.68782 -0.43288,0.037 c -0.47531,0.0406 -1.04136,0.22404 -1.4943,0.48416 -0.39892,0.22911 -5.52612,5.35631 -5.75523,5.75523 -0.25289,0.44036 -0.43916,1.00396 -0.48237,1.45957 l -0.0387,0.40761 -1.08766,1.095 -1.08767,1.095 -45.69945,0 -45.69945,0 -0.0695,-0.405 c -0.22632,-1.31876 -1.36576,-2.47615 -2.66883,-2.71087 -0.22677,-0.0409 -1.66582,-0.0641 -3.96398,-0.0641 -2.29816,0 -3.73721,0.0233 -3.96398,0.0641 -0.58711,0.10575 -1.28178,0.47829 -1.73269,0.9292 -1.62015,1.62016 -1.16501,4.37855 0.88481,5.36234 0.27052,0.12984 0.65207,0.26493 0.84788,0.3002 0.20323,0.0366 1.16651,0.0641 2.24457,0.0641 l 1.88856,0 0.34871,0.33262 c 0.33392,0.31849 0.71576,0.53726 1.10214,0.63142 0.099,0.0241 22.185,0.0398 49.08,0.0349 l 48.9,-0.009 0.34343,-0.16096 z m -100.37155,-2.4508 c -0.52925,-0.16347 -1.08165,-0.73885 -1.22774,-1.2788 -0.20866,-0.77123 0.20083,-1.61853 0.98253,-2.03303 0.36122,-0.19154 1.10544,-0.19154 1.46666,0 0.37646,0.19962 0.63211,0.44743 0.82989,0.80446 0.15438,0.2787 0.17678,0.37995 0.17678,0.79913 0,0.41919 -0.0224,0.52044 -0.17678,0.79914 -0.32523,0.58709 -0.83751,0.91675 -1.47322,0.94802 -0.2145,0.0106 -0.47465,-0.007 -0.57812,-0.0389 z m 105.96,-4.8 c -0.52925,-0.16347 -1.08165,-0.73885 -1.22774,-1.2788 -0.20866,-0.77123 0.20082,-1.61853 0.98253,-2.03303 0.36122,-0.19154 1.10544,-0.19154 1.46666,0 0.37646,0.19962 0.63211,0.44743 0.82989,0.80446 0.15438,0.2787 0.17678,0.37995 0.17678,0.79913 0,0.41919 -0.0224,0.52044 -0.17678,0.79914 -0.32523,0.5871 -0.83751,0.91675 -1.47322,0.94803 -0.2145,0.0105 -0.47465,-0.007 -0.57812,-0.0389 z m 8.16,-29.879991 c -0.52925,-0.16348 -1.08165,-0.73886 -1.22774,-1.27881 -0.20866,-0.77123 0.20082,-1.61853 0.98253,-2.03303 0.36122,-0.19154 1.10544,-0.19154 1.46666,0 0.37646,0.19962 0.63211,0.44744 0.82989,0.80446 0.15438,0.2787 0.17678,0.37995 0.17678,0.79913 0,0.41919 -0.0224,0.52044 -0.17678,0.79914 -0.32523,0.5871 -0.83751,0.91676 -1.47322,0.94803 -0.2145,0.0105 -0.47465,-0.007 -0.57812,-0.0389 z m -118.14,-67.499997 c -0.52925,-0.16347 -1.08165,-0.73885 -1.22774,-1.2788 -0.20866,-0.77123 0.20083,-1.61854 0.98253,-2.03304 0.36122,-0.19154 1.10544,-0.19154 1.46666,0 0.37646,0.19962 0.63211,0.44744 0.82989,0.80447 0.15438,0.27869 0.17678,0.37994 0.17678,0.79913 0,0.41918 -0.0224,0.52043 -0.17678,0.79913 -0.32523,0.5871 -0.83751,0.91676 -1.47322,0.94803 -0.2145,0.0105 -0.47465,-0.007 -0.57812,-0.0389 z m 114.12,-1.86 c -0.52925,-0.16347 -1.08165,-0.73885 -1.22774,-1.2788 -0.20866,-0.77123 0.20082,-1.61854 0.98253,-2.03304 0.36122,-0.19154 1.10544,-0.19154 1.46666,0 0.37646,0.19962 0.63211,0.44744 0.82989,0.80447 0.15438,0.27869 0.17678,0.37994 0.17678,0.79913 0,0.41918 -0.0224,0.52043 -0.17678,0.79913 -0.32523,0.5871 -0.83751,0.91676 -1.47322,0.94803 -0.2145,0.0105 -0.47465,-0.007 -0.57812,-0.0389 z M 76.53398,127.97588 c 1.28079,-0.23071 2.43118,-1.3811 2.66189,-2.66189 0.0408,-0.22677 0.0641,-1.66582 0.0641,-3.96398 0,-2.29816 -0.0233,-3.73721 -0.0641,-3.96398 -0.0353,-0.19581 -0.17036,-0.57736 -0.3002,-0.84788 -0.2863,-0.59654 -0.81253,-1.15315 -1.37224,-1.45147 l -0.37809,-0.20152 2.76726,-2.76775 c 2.13513,-2.1355 2.781,-2.81559 2.82733,-2.97718 0.0354,-0.12339 0.0601,-1.15242 0.0601,-2.50482 0,-1.49026 0.0211,-2.2954 0.06,-2.2954 0.0391,0 0.06,-0.95 0.06,-2.73 l 0,-2.730001 -0.69,0 -0.69,0 0,2.730001 c 0,1.78 0.0209,2.73 0.06,2.73 0.0389,0 0.06,0.77508 0.06,2.20523 l 0,2.20523 -2.955,2.9489 -2.955,2.94891 -0.42,0.0692 c -1.32715,0.2187 -2.48956,1.35666 -2.72587,2.66854 -0.0408,0.22677 -0.0641,1.66582 -0.0641,3.96398 0,2.29816 0.0233,3.73721 0.0641,3.96398 0.0353,0.19582 0.17036,0.57736 0.3002,0.84788 0.64561,1.34519 2.12572,2.08491 3.62965,1.81401 z m -1.0921,-4.85763 c -0.52925,-0.16347 -1.08165,-0.73885 -1.22774,-1.2788 -0.20866,-0.77123 0.20082,-1.61853 0.98253,-2.03303 0.36122,-0.19154 1.10544,-0.19154 1.46666,0 0.37646,0.19962 0.63211,0.44743 0.82989,0.80446 0.15438,0.2787 0.17678,0.37995 0.17678,0.79913 0,0.41919 -0.0224,0.52044 -0.17678,0.79914 -0.32523,0.5871 -0.83751,0.91675 -1.47322,0.94803 -0.2145,0.0105 -0.47465,-0.007 -0.57812,-0.0389 z m 10.0921,4.85763 c 1.28079,-0.23071 2.43118,-1.3811 2.66189,-2.66189 0.0408,-0.22677 0.0641,-1.66582 0.0641,-3.96398 0,-2.29816 -0.0233,-3.73721 -0.0641,-3.96398 -0.0353,-0.19581 -0.17036,-0.57736 -0.3002,-0.84788 -0.38353,-0.79912 -1.05626,-1.39008 -1.93445,-1.69934 L 85.65,114.72922 85.6347,109.53461 c -0.0102,-3.45225 0.005,-5.1946 0.045,-5.1946 0.0396,0 0.0603,-0.94 0.0603,-2.73 l 0,-2.730001 -0.69,0 -0.69,0 0,2.730001 c 0,1.78 0.0209,2.73 0.06,2.73 0.0395,0 0.06,1.76728 0.06,5.18185 l 0,5.18184 -0.2815,0.0386 c -0.48717,0.0668 -1.22405,0.46995 -1.66516,0.91107 -0.45092,0.4509 -0.82346,1.14558 -0.92921,1.73268 -0.0408,0.22677 -0.0641,1.66582 -0.0641,3.96398 0,2.29816 0.0233,3.73721 0.0641,3.96398 0.0353,0.19582 0.17036,0.57736 0.3002,0.84788 0.64561,1.34519 2.12572,2.08491 3.62965,1.81401 z m -1.0921,-4.91763 c -0.52925,-0.16347 -1.08165,-0.73885 -1.22774,-1.2788 -0.20866,-0.77123 0.20082,-1.61853 0.98253,-2.03303 0.36122,-0.19154 1.10544,-0.19154 1.46666,0 0.37646,0.19962 0.63211,0.44743 0.82989,0.80446 0.15438,0.2787 0.17678,0.37995 0.17678,0.79913 0,0.41919 -0.0224,0.52044 -0.17678,0.79914 -0.32523,0.5871 -0.83751,0.91675 -1.47322,0.94803 -0.2145,0.0105 -0.47465,-0.007 -0.57812,-0.0389 z m 10.0921,4.85763 c 1.28079,-0.23071 2.43118,-1.3811 2.66189,-2.66189 0.0886,-0.49172 0.0873,-7.44642 -0.001,-7.9265 -0.0747,-0.40415 -0.34459,-1.03456 -0.56867,-1.32834 l -0.15189,-0.19914 2.90355,0 2.90356,0 0.0702,0.23439 c 0.10505,0.35061 0.55307,0.91911 0.94614,1.2006 0.19226,0.13766 0.53728,0.30882 0.77041,0.38217 0.413,0.12994 0.48975,0.13284 3.51223,0.13284 3.03403,0 3.09774,-0.002 3.51775,-0.13452 2.1029,-0.66135 2.56755,-3.4812 0.78935,-4.79024 -0.68548,-0.50464 -0.69062,-0.50524 -4.30708,-0.50524 -2.9884,0 -3.18912,0.007 -3.55243,0.11893 -0.8095,0.25004 -1.49917,0.95514 -1.7422,1.78122 l -0.12941,0.43985 -0.91798,0 -0.91798,0 -6e-4,-2.385 c 0,-1.45611 -0.0245,-2.47194 -0.0623,-2.60823 -0.12108,-0.43598 0.31486,-0.40677 -6.07068,-0.40677 l -5.74665,0 0,-2.46 c 0,-1.6 0.021,-2.46 0.06,-2.46 0.0391,0 0.06,-0.95 0.06,-2.73 l 0,-2.730001 -0.69,0 -0.69,0 0,2.730001 c 0,1.78 0.0209,2.73 0.06,2.73 0.0392,0 0.06,0.98555 0.06,2.83665 0,3.15715 -0.0146,3.04366 0.40677,3.16069 0.14626,0.0406 2.16248,0.0621 5.84823,0.0623 l 5.625,6e-4 0,2.13521 0,2.13522 -2.985,-0.0144 c -2.71518,-0.0131 -3.01212,-0.005 -3.285,0.0909 -0.92529,0.32481 -1.61736,0.92219 -2.00568,1.73128 -0.12983,0.27053 -0.26492,0.65207 -0.3002,0.84789 -0.0408,0.22677 -0.0641,1.66581 -0.0641,3.96398 0,2.29816 0.0233,3.7372 0.0641,3.96397 0.0353,0.19582 0.17037,0.57737 0.3002,0.84789 0.64561,1.34519 2.12573,2.08491 3.62965,1.81401 z m -1.0921,-4.85763 c -0.52925,-0.16347 -1.08165,-0.73885 -1.22774,-1.2788 -0.20866,-0.77123 0.20082,-1.61853 0.98253,-2.03303 0.36122,-0.19154 1.10544,-0.19154 1.46666,0 0.37646,0.19962 0.63211,0.44743 0.82989,0.80446 0.15438,0.2787 0.17678,0.37995 0.17678,0.79913 0,0.41919 -0.0224,0.52044 -0.17678,0.79914 -0.32523,0.5871 -0.83751,0.91675 -1.47322,0.94803 -0.2145,0.0105 -0.47465,-0.007 -0.57812,-0.0389 z m 13.68,-6.3 c -0.52925,-0.16347 -1.08165,-0.73885 -1.22774,-1.2788 -0.20866,-0.77123 0.20082,-1.61853 0.98253,-2.03303 0.36122,-0.19154 1.10544,-0.19154 1.46666,0 0.37646,0.19962 0.63211,0.44743 0.82989,0.80446 0.15438,0.2787 0.17678,0.37995 0.17678,0.79913 0,0.41919 -0.0224,0.52044 -0.17678,0.79914 -0.32523,0.5871 -0.83751,0.91675 -1.47322,0.94803 -0.2145,0.0106 -0.47465,-0.007 -0.57812,-0.0389 z m 4.00739,9.85301 c 0.7686,-0.25512 1.486,-0.95502 1.71122,-1.66948 l 0.10043,-0.31863 4.14723,-0.0166 c 4.64887,-0.0186 4.40161,0.006 4.52854,-0.451 0.042,-0.15121 0.0627,-2.72261 0.063,-7.80057 l 3.4e-4,-7.575 1.14,0 1.14,0 0,-3.21 0,-3.21 -2.62423,0 -2.62423,0 -3.09212,-3.090001 -3.09211,-3.09 -7.12366,0 c -6.29213,0 -7.12365,-0.0105 -7.12365,-0.09 0,-0.078 -0.24334,-0.09 -1.83,-0.09 l -1.83,0 0,0.75 0,0.75 1.83,0 c 1.58666,0 1.83,-0.012 1.83,-0.09 0,-0.0795 0.80498,-0.09 6.88478,-0.09 l 6.88479,0 3.10521,3.104781 3.10522,3.10479 0,2.62521 0,2.62522 1.14,0 1.14,0 0,7.35 0,7.35 -3.795,0 -3.795,0 -0.10141,-0.34513 c -0.21607,-0.73536 -0.94551,-1.45774 -1.71064,-1.69406 -0.37038,-0.1144 -0.55448,-0.12064 -3.55795,-0.12064 -2.9884,0 -3.18912,0.007 -3.55243,0.11893 -1.10114,0.33994 -1.84757,1.3827 -1.84757,2.5809 0,1.40484 0.96796,2.50781 2.36935,2.69983 0.19836,0.0272 1.67015,0.0437 3.27065,0.0367 2.82337,-0.0124 2.92189,-0.0167 3.30927,-0.14526 z m -4.00739,-0.85301 c -0.52925,-0.16347 -1.08165,-0.73885 -1.22774,-1.2788 -0.20866,-0.77123 0.20082,-1.61853 0.98253,-2.03303 0.36122,-0.19154 1.10544,-0.19154 1.46666,0 0.37646,0.19962 0.63211,0.44743 0.82989,0.80446 0.15438,0.2787 0.17678,0.37995 0.17678,0.79913 0,0.41919 -0.0224,0.52044 -0.17678,0.79914 -0.32523,0.5871 -0.83751,0.91675 -1.47322,0.94803 -0.2145,0.0106 -0.47465,-0.007 -0.57812,-0.0389 z m -49.03261,-1.12699 c 0.7693,-0.25535 1.486,-0.95502 1.71171,-1.67105 l 0.10093,-0.3202 1.59405,-6e-4 c 0.87672,0 1.69106,-0.0273 1.80964,-0.0602 0.17508,-0.0486 1.48068,-1.33333 6.94848,-6.83722 5.0492,-5.08252 6.74703,-6.82661 6.78941,-6.97438 0.0311,-0.10838 0.0565,-1.14898 0.0565,-2.31244 0,-1.37027 0.0211,-2.1154 0.06,-2.1154 0.0391,0 0.06,-0.95 0.06,-2.73 l 0,-2.730001 -0.69,0 -0.69,0 0,2.730001 c 0,1.78 0.0209,2.73 0.06,2.73 0.0389,0 0.0594,0.71386 0.0583,2.025 l -0.002,2.025 -6.5233,6.55795 -6.5233,6.55794 -1.5,-0.003 -1.5,-0.003 -0.10141,-0.34513 c -0.21606,-0.73536 -0.94551,-1.45774 -1.71064,-1.69406 -0.3704,-0.11414 -0.5545,-0.12038 -3.55797,-0.12038 -2.98839,0 -3.18912,0.007 -3.55242,0.11894 -1.10115,0.34011 -1.84758,1.38287 -1.84758,2.58106 0,1.40485 0.96795,2.50782 2.36935,2.69984 0.19836,0.0272 1.67015,0.0437 3.27065,0.0367 2.82337,-0.0124 2.92189,-0.0167 3.30927,-0.14526 z m -4.00739,-0.85301 c -0.52925,-0.16347 -1.08165,-0.73885 -1.22774,-1.2788 -0.20866,-0.77123 0.20083,-1.61853 0.98253,-2.03303 0.36122,-0.19154 1.10544,-0.19154 1.46666,0 0.37646,0.19962 0.63211,0.44743 0.82989,0.80446 0.15438,0.2787 0.17678,0.37995 0.17678,0.79913 0,0.41919 -0.0224,0.52044 -0.17678,0.79914 -0.32523,0.5871 -0.83751,0.91675 -1.47322,0.94803 -0.2145,0.0106 -0.47465,-0.007 -0.57812,-0.0389 z M 42.96,110.67315 l 0,-9.74687 -0.315,-0.0181 -0.315,-0.0181 1.76603,-1.785001 1.76603,-1.785 8.71897,0 c 7.7102,0 8.71897,0.0104 8.71897,0.09 0,0.078 0.24334,0.09 1.83,0.09 l 1.83,0 0,-0.75 0,-0.75 -1.83,0 c -1.58666,0 -1.83,0.012 -1.83,0.09 0,0.0796 -1.03387,0.0897 -8.955,0.0875 l -8.955,-0.003 -2.34,2.37321 -2.34,2.373221 -2.445,-6.6e-4 -2.445,-6.4e-4 0,4.41 0,4.41 -2.13,0 -2.13,0 0,-1.32 0,-1.32 -2.01,0 -2.01,0 0,3.21 0,3.21 2.01,0 2.01,0 0,-1.32 0,-1.32 2.13,0 2.13,0 0,4.77 0,4.77 3.57,0 3.57,0 0,-9.74687 z m 15.12927,4.95811 c 0.75393,-0.25025 1.47102,-0.93966 1.70261,-1.63691 l 0.0978,-0.29434 3.85018,-6e-4 c 2.32715,0 3.93325,-0.0236 4.06018,-0.0591 0.30382,-0.085 6.33191,-6.11346 6.41993,-6.42035 0.033,-0.1152 0.0601,-0.81039 0.0601,-1.54485 0,-0.85027 0.0218,-1.3354 0.06,-1.3354 0.0391,0 0.06,-0.95 0.06,-2.73 l 0,-2.730001 -0.69,0 -0.69,0 0,2.730001 c 0,1.78 0.0209,2.73 0.06,2.73 0.0381,0 0.06,0.45508 0.06,1.24524 l 0,1.24523 -2.86569,2.86523 -2.8657,2.86522 -3.73758,-0.0155 -3.73759,-0.0155 -0.13178,-0.39161 c -0.26091,-0.77532 -0.93675,-1.44086 -1.70371,-1.67775 -0.37038,-0.11414 -0.55448,-0.12038 -3.55795,-0.12038 -2.98839,0 -3.18912,0.007 -3.55242,0.11894 -1.10115,0.34011 -1.84758,1.38287 -1.84758,2.58106 0,1.40485 0.96795,2.50782 2.36935,2.69984 0.19836,0.0272 1.67015,0.0437 3.27065,0.0367 2.82337,-0.0124 2.92189,-0.0167 3.30927,-0.14526 z m -4.00739,-0.85301 c -0.52925,-0.16347 -1.08165,-0.73885 -1.22774,-1.2788 -0.20866,-0.77123 0.20083,-1.61853 0.98253,-2.03303 0.36122,-0.19154 1.10544,-0.19154 1.46666,0 0.37646,0.19962 0.63211,0.44743 0.82989,0.80446 0.15438,0.2787 0.17678,0.37995 0.17678,0.79913 0,0.41919 -0.0224,0.52044 -0.17678,0.79914 -0.32523,0.5871 -0.83751,0.91675 -1.47322,0.94803 -0.2145,0.0106 -0.47465,-0.007 -0.57812,-0.0389 z M 20.94,110.31001 l 0,-3.21 -0.72,0 -0.72,0 0,-13.320001 0,-13.32 0.69,0 0.69,0 0,-3.21 0,-3.21 -0.72,0 -0.72,0 0,-1.10373 0,-1.10373 1.40923,-1.36369 c 1.11187,-1.07595 1.42199,-1.40962 1.46967,-1.58127 0.0359,-0.12921 0.0606,-1.18627 0.0608,-2.60257 l 3.3e-4,-2.384997 1.98,0 1.98,0 0,-1.11 0,-1.11 9.97468,0 9.97469,0 2.08531,2.08467 2.08532,2.084677 0,9.44825 0,9.44825 1.995,1.99862 c 1.58083,1.5837 2.0386,2.00953 2.205,2.05123 0.1155,0.0289 3.33525,0.0702 7.155,0.0917 l 6.945,0.0391 0,-0.6367 0,-0.6367 -6.84507,0.043 -6.84507,0.043 -1.73493,-1.73416 -1.73493,-1.73416 0,-0.56529 0,-0.56531 8.58,0.0389 8.58,0.0389 0,-0.62833 0,-0.62835 -8.44553,0.0392 c -6.51463,0.0302 -8.47628,0.0227 -8.58,-0.0328 l -0.13447,-0.072 -3.6e-4,-8.11289 c -1.8e-4,-5.08018 -0.0222,-8.19138 -0.0588,-8.32288 -0.0454,-0.16297 -0.58659,-0.73748 -2.41643,-2.564997 l -2.35796,-2.355 -8.83324,0 -8.83323,0 0,-12.2548 0,-12.2548 3.2848,-3.2852 3.28479,-3.2852 20.58021,-0.003 20.5802,-0.003 2.65331,2.68783 2.6533,2.68783 0.002,10.05165 c 0.002,11.16553 -0.034,10.25278 0.40846,10.37568 0.31114,0.0864 15.07754,0.0858 15.3888,-6.5e-4 0.41905,-0.11637 0.43209,-0.17409 0.45287,-2.00602 l 0.0184,-1.62494 0.29136,-0.10349 c 0.57407,-0.20389 1.14185,-0.73907 1.4205,-1.33895 0.21921,-0.47193 0.25755,-1.00239 0.25755,-3.56329 0,-2.56643 -0.038,-3.08817 -0.2602,-3.57356 l -0.14512,-0.31699 2.53888,-2.49472 2.53888,-2.49473 8.52564,0 8.52563,0 0,1.28368 c 0,1.11034 0.0161,1.33568 0.11893,1.66875 0.23713,0.76771 0.95861,1.49955 1.69026,1.71454 l 0.35064,0.10303 0,3.66 0,3.66 -0.34513,0.10141 c -0.73536,0.21607 -1.45773,0.94551 -1.69406,1.71064 -0.11438,0.37039 -0.12062,0.55449 -0.12062,3.55796 0,3.00346 0.006,3.18757 0.12064,3.55795 0.23641,0.76542 0.95892,1.49479 1.69453,1.71063 l 0.34561,0.10142 -0.0154,3.23102 -0.0154,3.231017 -0.28306,0.10745 c -0.68301,0.25924 -1.32658,0.95121 -1.5463,1.66255 -0.10563,0.34201 -0.12064,0.55772 -0.12064,1.73427 l 0,1.34368 -3.93,0 -3.93,0 0,-1.13012 0,-1.13012 -4.77992,-0.0399 c -2.62895,-0.0219 -5.50445,-0.0399 -6.39,-0.0399 l -1.61008,0 0,1.14 0,1.14 -3.31459,0 -3.31459,0 -4.90541,4.9054 -4.90541,4.90542 0,2.01123 c 0,2.24452 -0.003,2.22719 0.4072,2.33075 0.12603,0.0318 2.92654,0.0739 6.4478,0.097 l 6.225,0.0407 0,-0.64121 0,-0.6412 -5.97,0.0445 -5.97,0.0444 0,-1.40365 0,-1.40365 4.57514,-4.57486 4.57515,-4.57485 3.07485,0 3.07486,0 0,1.13013 0,1.13012 4.77992,0.0399 c 2.62895,0.0219 5.50445,0.0399 6.39,0.0399 l 1.61008,0 0,-1.14 0,-1.14 3.93,0 3.93,0 0,1.25368 c 0,1.08043 0.0164,1.30689 0.11893,1.63875 0.23713,0.7677 0.9586,1.49955 1.69026,1.71454 l 0.35064,0.10303 0,1.935 0,1.935 -1.17,0 -1.17,0 0,2.85 0,2.85 3.21,0 3.21,0 0,-2.85 0,-2.85 -1.47,0 -1.47,0 0,-1.93904 0,-1.93905 0.32574,-0.10268 c 0.72847,-0.22963 1.4221,-0.95463 1.67142,-1.747 0.12994,-0.413 0.13284,-0.48975 0.13284,-3.51223 0,-3.03404 -0.002,-3.09775 -0.13452,-3.51776 -0.26157,-0.83169 -0.95115,-1.52205 -1.76825,-1.77024 l -0.40723,-0.12369 0,-3.193197 0,-3.1932 0.3202,-0.10093 c 0.73409,-0.2314 1.42636,-0.95175 1.67528,-1.74322 0.13209,-0.42001 0.13452,-0.48372 0.13452,-3.51776 0,-3.02247 -0.003,-3.09922 -0.13284,-3.51222 -0.24932,-0.79238 -0.94295,-1.51738 -1.67142,-1.74701 l -0.32574,-0.10268 0,-3.66809 0,-3.66808 0.3202,-0.10094 c 0.73409,-0.2314 1.42636,-0.95175 1.67528,-1.74322 0.13209,-0.42001 0.13452,-0.48372 0.13452,-3.51776 0,-3.02247 -0.003,-3.09922 -0.13284,-3.51222 -0.66332,-2.10821 -3.48102,-2.57561 -4.79192,-0.79488 -0.44028,0.59808 -0.50524,0.91352 -0.50524,2.45342 l 0,1.31368 -8.76457,0 -8.76457,0 -2.69918,2.66497 -2.69917,2.66496 -0.34126,-0.15996 c -0.30779,-0.14429 -0.40901,-0.15997 -1.03251,-0.15997 -0.65797,0 -0.71025,0.009 -1.08552,0.1941 -0.50351,0.24787 -0.96125,0.70561 -1.20912,1.20912 l -0.1941,0.39426 0,3.21252 0,3.21253 0.1941,0.39426 c 0.10729,0.21793 0.33214,0.53231 0.50277,0.70294 0.30465,0.30465 0.92798,0.67027 1.14271,0.67027 0.1038,0 0.11042,0.0773 0.11042,1.29 l 0,1.29 -6.99,0 -6.99,0 -6e-4,-9.765 c 0,-6.50226 -0.0209,-9.83516 -0.0619,-9.975 -0.047,-0.16031 -0.75314,-0.90942 -2.98466,-3.16636 l -2.92263,-2.95636 -21.05944,0.001 -21.05945,10e-4 -3.61555,3.61555 -3.61556,3.61556 0,12.49444 0,12.49444 -0.81,0 -0.81,0 0,-1.17 0,-1.17 -3.21,0 -3.21,0 0,2.85 0,2.85 0.588,0 c 0.37733,0 0.6138,0.0258 0.66,0.072 0.0533,0.0533 0.0725,0.648407 0.0741,2.294997 l 0.002,2.223 -1.47319,1.44 -1.47318,1.44 0.001,1.335 10e-4,1.335 -0.72,0 -0.72,0 0,3.21 0,3.21 0.75,0 0.75,0 0,13.32 0,13.320001 -0.72,0 -0.72,0 0,3.21 0,3.21 2.01,0 2.01,0 0,-3.21 z M 124.52188,74.098259 c -0.52925,-0.16348 -1.08165,-0.73886 -1.22774,-1.27881 -0.20866,-0.77123 0.20082,-1.61853 0.98253,-2.03303 0.36122,-0.19154 1.10544,-0.19154 1.46666,0 0.37646,0.19962 0.63211,0.44744 0.82989,0.80446 0.15438,0.2787 0.17678,0.37995 0.17678,0.79913 0,0.41919 -0.0224,0.52044 -0.17678,0.79914 -0.32523,0.5871 -0.83751,0.91676 -1.47322,0.94803 -0.2145,0.0105 -0.47465,-0.007 -0.57812,-0.0389 z m -0.18,-17.159997 c -0.52925,-0.16348 -1.08165,-0.73886 -1.22774,-1.2788 -0.15391,-0.56887 0.0793,-1.32809 0.52931,-1.72321 0.38967,-0.34213 0.66223,-0.44416 1.18655,-0.44416 0.38163,0 0.53192,0.0275 0.73333,0.13433 0.37646,0.19962 0.63211,0.44744 0.82989,0.80446 0.15438,0.2787 0.17678,0.37995 0.17678,0.79914 0,0.41918 -0.0224,0.52043 -0.17678,0.79913 -0.32523,0.5871 -0.83751,0.91676 -1.47322,0.94803 -0.2145,0.0106 -0.47465,-0.007 -0.57812,-0.0389 z m -27.0701,-8.79905 C 96.71504,47.942282 96.24,47.256652 96.24,46.650022 c 0,-0.8386 0.75141,-1.59 1.59,-1.59 0.83859,0 1.59,0.7514 1.59,1.59 0,0.40913 -0.16641,0.79069 -0.48286,1.10714 -0.45544,0.45544 -1.06349,0.59494 -1.66536,0.38205 z m 27.0701,-9.26095 c -0.52925,-0.16348 -1.08165,-0.73886 -1.22774,-1.2788 -0.15391,-0.56887 0.0793,-1.32809 0.52931,-1.72321 0.38967,-0.34213 0.66223,-0.44416 1.18655,-0.44416 0.38163,0 0.53192,0.0275 0.73333,0.13433 0.37646,0.19962 0.63211,0.44744 0.82989,0.80447 0.15438,0.27869 0.17678,0.37994 0.17678,0.79913 0,0.41918 -0.0224,0.52043 -0.17678,0.79913 -0.32523,0.5871 -0.83751,0.91676 -1.47322,0.94803 -0.2145,0.0105 -0.47465,-0.007 -0.57812,-0.0389 z m -13.21261,69.732998 c 0.2196,-0.0729 0.56062,-0.25131 0.75783,-0.39648 1.46734,-1.0802 1.46734,-3.30934 0,-4.38953 -0.6855,-0.50464 -0.69064,-0.50524 -4.3071,-0.50524 -2.9884,0 -3.18912,0.007 -3.55243,0.11893 -0.7677,0.23713 -1.49955,0.95861 -1.71454,1.69026 l -0.10303,0.35064 -5.475,0 -5.475,0 0,-0.57 c 0,-0.46666 0.0163,-0.57 0.09,-0.57 0.078,0 0.09,-0.24333 0.09,-1.83 l 0,-1.83 -0.75,0 -0.75,0 0,1.83 c 0,1.58667 0.012,1.83 0.09,1.83 0.0762,0 0.09,0.14519 0.09,0.94665 0,1.06981 0.0309,1.1663 0.40677,1.27069 0.14641,0.0407 2.19649,0.0621 5.95727,0.0623 l 5.73405,6e-4 0.10268,0.32574 c 0.2085,0.66145 0.87163,1.34611 1.55542,1.60594 0.51965,0.19744 0.91694,0.21808 3.94381,0.20482 2.82337,-0.0124 2.92189,-0.0167 3.30927,-0.14526 z m -4.00739,-0.85301 c -0.52925,-0.16347 -1.08165,-0.73885 -1.22774,-1.2788 -0.20866,-0.77123 0.20082,-1.61853 0.98253,-2.03303 0.36122,-0.19154 1.10544,-0.19154 1.46666,0 0.37646,0.19962 0.63211,0.44743 0.82989,0.80446 0.15438,0.2787 0.17678,0.37995 0.17678,0.79913 0,0.41919 -0.0224,0.52044 -0.17678,0.79914 -0.32523,0.5871 -0.83751,0.91675 -1.47322,0.94803 -0.2145,0.0106 -0.47465,-0.007 -0.57812,-0.0389 z m 26.91812,-2.18824 0,-3.21 -1.11,0 -1.11,0 -6e-4,-1.005 c 0,-0.55275 -0.0267,-1.0995 -0.059,-1.215 -0.0446,-0.159711 -0.43964,-0.590641 -1.64967,-1.799571 l -1.59074,-1.58957 0,-2.62543 0,-2.62543 -3.21,0 -3.21,0 0,2.85 0,2.85 2.6246,0 2.62461,0 1.66539,1.6646 1.6654,1.664601 0,0.9154 0,0.9154 -1.17,0 -1.17,0 0,3.21 0,3.21 2.85,0 2.85,0 0,-3.21 z m -75.95073,1.06125 c 0.81138,-0.26931 1.49601,-0.96493 1.73987,-1.7678 0.10186,-0.33533 0.11911,-0.5125 0.0937,-0.96223 -0.0171,-0.30317 -0.0504,-0.61197 -0.074,-0.68622 l -0.0428,-0.135 5.167,0 5.167,0 0,0.63 0,0.63 0.75,0 0.75,0 0,-1.83 0,-1.83 -0.75,0 -0.75,0 0,0.63 0,0.63 -5.58052,0 -5.58052,0 -0.24937,-0.18064 c -0.13716,-0.0994 -0.42327,-0.23436 -0.6358,-0.3 -0.36505,-0.11276 -0.56164,-0.11936 -3.55379,-0.11936 -2.98839,0 -3.18912,0.007 -3.55242,0.11893 -1.10115,0.34011 -1.84758,1.38288 -1.84758,2.58107 0,1.40485 0.96795,2.50782 2.36935,2.69983 0.19836,0.0272 1.67015,0.0437 3.27065,0.0367 2.82337,-0.0124 2.92189,-0.0167 3.30927,-0.14526 z m -4.00739,-0.85301 c -0.52925,-0.16347 -1.08165,-0.73885 -1.22774,-1.2788 -0.20866,-0.77123 0.20083,-1.61853 0.98253,-2.03303 0.36122,-0.19154 1.10544,-0.19154 1.46666,0 0.37646,0.19962 0.63211,0.44743 0.82989,0.80446 0.15438,0.2787 0.17678,0.37995 0.17678,0.79913 0,0.41919 -0.0224,0.52044 -0.17678,0.79914 -0.32523,0.5871 -0.83751,0.91675 -1.47322,0.94803 -0.2145,0.0106 -0.47465,-0.007 -0.57812,-0.0389 z m 25.95812,-4.16824 0,-2.730001 -0.69,0 -0.69,0 0,2.730001 0,2.73 0.69,0 0.69,0 0,-2.73 z m -11.28,-7.675881 0,-0.62588 -10.065,0.0323 -10.065,0.0323 -3.2998,-3.30644 -3.29979,-3.30643 0.46479,0 0.4648,0 0,-9.75 0,-9.75 -3.57,0 -3.57,0 0,4.71 0,4.71 -2.16,0 -2.16,0 0,-1.32 0,-1.32 -2.01,0 -2.01,0 0,3.21 0,3.21 2.01,0 2.01,0 0,-1.32 0,-1.32 2.16,0 2.16,0 0,4.47 0,4.47 2.29518,0 2.29518,0 3.77982,3.78367 c 2.0789,2.08101 3.83382,3.81576 3.89982,3.855 0.0903,0.0537 1.99399,0.0789 7.68,0.10201 4.158,0.0169 8.78175,0.0371 10.275,0.045 l 2.715,0.0143 0,-0.62588 z m 46.74,0.52888 c 0.26268,-0.0312 0.3286,-0.0906 2.43109,-2.18756 l 2.16108,-2.15544 5.63931,0 c 3.58075,0 5.71569,-0.0219 5.84856,-0.06 0.30405,-0.0872 3.75656,-3.53914 3.84061,-3.83998 0.0356,-0.1275 0.0588,-1.838 0.059,-4.35405 l 6e-4,-4.14404 0.32574,-0.10268 c 0.72848,-0.22963 1.42211,-0.95464 1.67142,-1.74701 0.12994,-0.413 0.13284,-0.48975 0.13284,-3.51222 0,-3.02248 -0.003,-3.09923 -0.13284,-3.51223 -0.24931,-0.79237 -0.94294,-1.51737 -1.67142,-1.74701 l -0.32574,-0.10267 0,-3.249547 0,-3.24955 0.23439,-0.0702 c 0.35061,-0.10504 0.91911,-0.55306 1.2006,-0.94614 0.13766,-0.19225 0.30882,-0.53727 0.38217,-0.7704 0.12994,-0.413 0.13284,-0.48975 0.13284,-3.51223 0,-3.02247 -0.003,-3.09922 -0.13284,-3.51222 -0.24931,-0.79238 -0.94294,-1.51738 -1.67142,-1.74701 l -0.32574,-0.10268 0,-3.66809 0,-3.66808 0.32021,-0.10094 c 0.73408,-0.2314 1.42635,-0.95175 1.67527,-1.74322 0.13209,-0.42001 0.13452,-0.48372 0.13452,-3.51776 0,-3.02247 -0.003,-3.09922 -0.13284,-3.51222 -0.6633,-2.10813 -3.48102,-2.57561 -4.79183,-0.79499 -0.14513,0.19714 -0.29548,0.46391 -0.3341,0.59283 -0.0386,0.12891 -0.0859,0.23438 -0.10509,0.23438 -0.0192,0 -1.73665,-1.701 -3.81661,-3.78 l -3.78174,-3.78 -46.40845,0 -46.40845,0 -4.54544,4.54545 -4.54571,4.54544 0,1.39456 0,1.39455 -1.14,0 -1.14,0 0,3.21 0,3.21 1.14,0 1.14,0 0,1.95 0,1.95 -1.32,0 -1.32,0 0,2.85 0,2.85 3.21,0 3.21,0 0,-2.85 0,-2.85 -1.32,0 -1.32,0 0,-1.95 0,-1.95 1.14,0 1.14,0 0,-3.21 0,-3.21 -1.14,0 -1.14,0 0,-1.15484 0,-1.15484 4.21484,-4.21516 4.21484,-4.21516 28.06516,0 28.06516,0 0,7.2 c 0,6.9517 -0.004,7.2 -0.11042,7.2 -0.21473,0 -0.83806,0.36562 -1.14272,0.67028 -0.17062,0.17063 -0.39547,0.485 -0.50277,0.70294 l -0.19409,0.39426 0,3.21252 0,3.21253 0.19409,0.39426 c 0.24788,0.5035 0.70562,0.96124 1.20912,1.20912 0.37541,0.18481 0.4274,0.19409 1.08679,0.19409 0.65939,0 0.71138,-0.009 1.08679,-0.19409 0.78832,-0.38809 1.32015,-1.12955 1.43161,-1.99591 0.075,-0.58324 0.0753,-5.05578 6e-4,-5.63328 -0.0958,-0.73815 -0.42967,-1.30962 -1.02751,-1.75883 -0.1659,-0.12466 -0.4343,-0.27376 -0.59644,-0.33135 l -0.29505,-0.1047 0,-7.18592 0,-7.18592 17.29483,0 17.29483,0 4.00517,4.00484 4.00517,4.00483 0,2.52884 c 0,2.36383 0.008,2.55434 0.12064,2.91944 0.23632,0.76513 0.9587,1.49458 1.69406,1.71064 l 0.34513,0.10141 0,3.66 0,3.66 -0.34513,0.10141 c -0.73536,0.21607 -1.45774,0.94551 -1.69406,1.71064 -0.1144,0.37038 -0.12064,0.55449 -0.12064,3.55795 0,2.9884 0.007,3.18912 0.11893,3.55243 0.25004,0.80951 0.95514,1.49917 1.78122,1.74221 l 0.43985,0.1294 0,3.18298 0,3.182977 -0.34513,0.10141 c -0.73536,0.21607 -1.45774,0.94551 -1.69406,1.71064 -0.1144,0.37038 -0.12064,0.55448 -0.12064,3.55795 0,3.00347 0.006,3.18757 0.12064,3.55795 0.23632,0.76513 0.9587,1.49457 1.69406,1.71064 l 0.34513,0.10141 0,4.04959 0,4.04958 -1.57457,1.57542 -1.57458,1.57541 -5.78855,0 -5.78854,0 -2.19295,2.19 -2.19295,2.19 -5.38393,0 -5.38393,0 0,-4.08 0,-4.08 4.98,0 4.98,0 0,-2.85 0,-2.85 -6.39,0 -6.39,0 0,2.85 0,2.85 0.84,0 0.84,0 0,1.26674 0,1.26674 -5.25,-0.0447 -5.25,-0.0447 0,0.64587 0,0.64587 5.25,-0.0447 5.25,-0.0447 0,2.24994 0,2.24995 -10.75441,-0.0323 -10.75441,-0.0324 -4.18707,-4.14431 c -2.30289,-2.27937 -4.22016,-4.16271 -4.26059,-4.1852 -0.0404,-0.0225 -2.32127,-0.0608 -5.06852,-0.0852 l -4.995,-0.0443 0,0.64759 0,0.6476 4.785,-0.0397 4.785,-0.0397 2.28,2.25478 2.28,2.25477 -7.065,-0.037 -7.065,-0.037 0,0.63428 0,0.63427 7.62461,-0.0413 7.62462,-0.0413 1.33091,1.32992 c 0.98779,0.98706 1.38481,1.34539 1.53999,1.38989 0.13259,0.038 2.25601,0.06 5.80447,0.06 3.26975,0 5.5954,0.0224 5.5954,0.0539 0,0.0568 22.19728,0.0265 22.68,-0.0309 z m 18.92188,-20.36475 c -0.52925,-0.16348 -1.08165,-0.73886 -1.22774,-1.27881 -0.20866,-0.77123 0.20082,-1.61853 0.98253,-2.03303 0.36122,-0.19154 1.10544,-0.19154 1.46666,0 0.37646,0.19962 0.63211,0.44744 0.82989,0.80446 0.15438,0.2787 0.17678,0.37995 0.17678,0.79913 0,0.41919 -0.0224,0.52044 -0.17678,0.79914 -0.32523,0.5871 -0.83751,0.91676 -1.47322,0.94803 -0.2145,0.0105 -0.47465,-0.007 -0.57812,-0.0389 z m -0.18,-17.159997 c -0.52925,-0.16348 -1.08165,-0.73886 -1.22774,-1.2788 -0.15391,-0.56887 0.0793,-1.32809 0.52931,-1.72321 0.38967,-0.34213 0.66223,-0.44416 1.18655,-0.44416 0.38163,0 0.53192,0.0275 0.73333,0.13433 0.37646,0.19962 0.63211,0.44744 0.82989,0.80446 0.15438,0.2787 0.17678,0.37995 0.17678,0.79914 0,0.41918 -0.0224,0.52043 -0.17678,0.79913 -0.32523,0.5871 -0.83751,0.91676 -1.47322,0.94803 -0.2145,0.0106 -0.47465,-0.007 -0.57812,-0.0389 z m -45.9701,-8.79905 C 87.71504,47.942282 87.24,47.256652 87.24,46.650022 c 0,-0.8386 0.75141,-1.59 1.59,-1.59 0.83859,0 1.59,0.7514 1.59,1.59 0,0.40913 -0.16641,0.79069 -0.48286,1.10714 -0.45544,0.45544 -1.06349,0.59494 -1.66536,0.38205 z m 45.9701,-9.26095 c -0.52925,-0.16348 -1.08165,-0.73886 -1.22774,-1.2788 -0.15391,-0.56887 0.0793,-1.32809 0.52931,-1.72321 0.38967,-0.34213 0.66223,-0.44416 1.18655,-0.44416 0.38163,0 0.53192,0.0275 0.73333,0.13433 0.37646,0.19962 0.63211,0.44744 0.82989,0.80447 0.15438,0.27869 0.17678,0.37994 0.17678,0.79913 0,0.41918 -0.0224,0.52043 -0.17678,0.79913 -0.32523,0.5871 -0.83751,0.91676 -1.47322,0.94803 -0.2145,0.0105 -0.47465,-0.007 -0.57812,-0.0389 z M 98.28,91.110009 l 0,-0.63 -2.73,0 -2.73,0 0,0.63 0,0.63 2.73,0 2.73,0 0,-0.63 z m 0,-8.52 0,-0.63 -2.73,0 -2.73,0 0,0.63 0,0.63 2.73,0 2.73,0 0,-0.63 z m -26.81609,-2.30941 c 0.14734,-0.0414 0.37425,-0.22397 0.72928,-0.58678 0.45626,-0.46625 0.52019,-0.55867 0.55719,-0.80542 0.023,-0.1533 0.0239,-0.39566 0.002,-0.53856 -0.0377,-0.2461 -0.15073,-0.36922 -2.13837,-2.32983 l -2.09853,-2.07 0.002,-5.42999 c 10e-4,-3.55238 -0.0194,-5.502617 -0.0598,-5.639997 -0.0478,-0.16267 -1.1263,-1.28211 -4.78467,-4.96649 l -4.7229,-4.7565 -3.945,10e-4 c -3.79141,0.001 -3.945,-0.003 -3.945,-0.10892 0,-0.21474 -0.36562,-0.83806 -0.67028,-1.14272 -0.17063,-0.17063 -0.485,-0.39548 -0.70294,-0.50277 l -0.39426,-0.19409 -3.21252,0 -3.21252,0 -0.39426,0.19409 c -0.50351,0.24788 -0.96125,0.70562 -1.20913,1.20912 -0.18481,0.3754 -0.19409,0.42739 -0.19409,1.08679 0,0.65939 0.009,0.71138 0.19409,1.08678 0.3881,0.78833 1.12955,1.32015 1.99591,1.43162 0.58324,0.075 5.05579,0.0753 5.63329,3.6e-4 0.73815,-0.0958 1.30962,-0.42968 1.75882,-1.02752 0.12466,-0.1659 0.27376,-0.43429 0.33135,-0.59643 l 0.10471,-0.29481 3.69091,-0.003 3.69092,-0.003 4.4533,4.48791 4.45331,4.48791 6e-4,5.579997 6e-4,5.58 2.13605,2.1 2.13604,2.1 -0.28969,0.28274 -0.28968,0.28273 -3.885,-0.0375 -3.885,-0.0375 0,0.64956 0,0.64956 3.975,-0.0395 c 2.34116,-0.0233 4.06292,-0.0642 4.1889,-0.0996 z M 45.55179,55.219212 C 44.99504,55.022282 44.52,54.336652 44.52,53.730022 c 0,-0.8386 0.75141,-1.59 1.59,-1.59 0.83859,0 1.59,0.7514 1.59,1.59 0,0.40913 -0.16641,0.79069 -0.48286,1.10714 -0.45544,0.45544 -1.06349,0.59494 -1.66535,0.38205 z M 98.28,79.770009 l 0,-0.63 -2.73,0 -2.73,0 0,0.63 0,0.63 2.73,0 2.73,0 0,-0.63 z m -31.32,-2.82 0,-0.75 -1.83,0 c -1.58666,0 -1.83,0.012 -1.83,0.09 0,0.0783 -0.27667,0.09 -2.13,0.09 l -2.13,0 0,-1.19523 0,-1.19523 0.195,-0.0401 c 0.10725,-0.0221 0.41634,-0.1458 0.68686,-0.27497 0.91362,-0.43625 1.63693,-1.37747 1.81401,-2.36049 0.0409,-0.22677 0.0641,-1.66582 0.0641,-3.96398 0,-2.29816 -0.0233,-3.737197 -0.0641,-3.963967 -0.10575,-0.58711 -0.47829,-1.28178 -0.92921,-1.73269 -1.62015,-1.62016 -4.37854,-1.16501 -5.36233,0.8848 -0.12984,0.27052 -0.26493,0.65207 -0.3002,0.84789 -0.0409,0.22677 -0.0641,1.665807 -0.0641,3.963967 0,2.29816 0.0233,3.73721 0.0641,3.96398 0.17689,0.98198 0.89929,1.92255 1.81401,2.36185 0.27052,0.12992 0.59311,0.25452 0.71686,0.27687 l 0.225,0.0407 0,1.56997 c 0,1.75571 0.006,1.78265 0.40677,1.89401 0.13629,0.0378 1.15212,0.0621 2.60823,0.0623 2.07985,0 2.385,0.0118 2.385,0.0903 0,0.078 0.24334,0.09 1.83,0.09 l 1.83,0 0,-0.75 z m -8.97812,-7.89175 c -0.52925,-0.16348 -1.08165,-0.73885 -1.22774,-1.27881 -0.20866,-0.77122 0.20083,-1.61853 0.98253,-2.03303 0.36122,-0.19154 1.10544,-0.19154 1.46666,0 0.37646,0.19962 0.63211,0.44744 0.82989,0.80446 0.15438,0.2787 0.17678,0.37995 0.17678,0.79914 0,0.41918 -0.0224,0.52043 -0.17678,0.79913 -0.32523,0.5871 -0.83751,0.91676 -1.47322,0.94803 -0.2145,0.0105 -0.47465,-0.007 -0.57812,-0.0389 z m 40.29812,7.89175 0,-0.75 -1.83,0 -1.83,0 0,0.75 0,0.75 1.83,0 1.83,0 0,-0.75 z m -23.88,-4.86 c 0,-1.78 -0.0209,-2.73 -0.06,-2.73 -0.0396,0 -0.0601,-2.15522 -0.0603,-6.344987 0,-3.9567 -0.0224,-6.42405 -0.0591,-6.555 -0.0464,-0.16602 -1.12722,-1.27825 -5.15966,-5.30987 l -5.10091,-5.09987 0,-1.23013 0,-1.23013 0.35064,-0.10304 c 0.74495,-0.21889 1.45183,-0.94583 1.70635,-1.75474 0.12994,-0.413 0.13284,-0.48975 0.13284,-3.51222 0,-3.02248 -0.003,-3.09923 -0.13284,-3.51223 -0.45213,-1.43697 -1.98528,-2.22111 -3.45511,-1.76713 -0.77818,0.24035 -1.48175,0.94549 -1.72312,1.72693 -0.11204,0.36331 -0.11876,0.56403 -0.11876,3.55243 0,2.98839 0.007,3.18911 0.11893,3.55242 0.23207,0.75134 0.94005,1.48134 1.65533,1.70681 l 0.32574,0.10268 0,1.47323 0,1.47322 5.16,5.16129 5.16,5.16128 0,6.25453 c 0,4.129687 -0.0204,6.254527 -0.06,6.254527 -0.0391,0 -0.06,0.95 -0.06,2.73 l 0,2.73 0.69,0 0.69,0 0,-2.73 z M 62.96188,39.958262 c -0.52925,-0.16348 -1.08165,-0.73886 -1.22774,-1.2788 -0.15391,-0.56887 0.0793,-1.32809 0.52931,-1.72321 0.38967,-0.34213 0.66223,-0.44416 1.18655,-0.44416 0.38163,0 0.53192,0.0275 0.73333,0.13433 0.37646,0.19962 0.63211,0.44744 0.82989,0.80447 0.15438,0.27869 0.17678,0.37994 0.17678,0.79913 0,0.41918 -0.0224,0.52043 -0.17678,0.79913 -0.32523,0.5871 -0.83751,0.91676 -1.47322,0.94803 -0.2145,0.0105 -0.47465,-0.007 -0.57812,-0.0389 z M 77.22,72.090009 c 0,-1.78 -0.0209,-2.73 -0.06,-2.73 -0.0397,0 -0.06,-3.04513 -0.06,-9.015387 0,-5.42921 -0.0224,-9.0934 -0.0562,-9.2115 -0.0392,-0.1368 -0.50179,-0.6538 -1.52957,-1.70961 l -1.47333,-1.51349 0.0146,-2.18104 0.0146,-2.18103 0.28306,-0.10743 c 0.69707,-0.26457 1.3255,-0.94944 1.56241,-1.70275 0.13209,-0.42001 0.13453,-0.48372 0.13453,-3.51775 0,-3.02248 -0.003,-3.09923 -0.13285,-3.51223 -0.45212,-1.43697 -1.98528,-2.22111 -3.4551,-1.76713 -0.77818,0.24035 -1.48175,0.94549 -1.72312,1.72693 -0.11221,0.36331 -0.11893,0.56403 -0.11893,3.55243 0,2.98839 0.007,3.18911 0.11893,3.55242 0.24511,0.79356 0.94822,1.49087 1.74831,1.73389 l 0.41276,0.12537 0,2.3673 0,2.36729 1.52864,1.57186 1.52864,1.57187 0.001,8.925 c 9e-4,5.910897 -0.0189,8.924987 -0.0586,8.924987 -0.0391,0 -0.06,0.95 -0.06,2.73 l 0,2.73 0.69,0 0.69,0 0,-2.73 z M 72.86188,39.958262 c -0.52925,-0.16348 -1.08165,-0.73886 -1.22774,-1.2788 -0.15391,-0.56887 0.0793,-1.32809 0.52931,-1.72321 0.38967,-0.34213 0.66223,-0.44416 1.18655,-0.44416 0.38163,0 0.53192,0.0275 0.73333,0.13433 0.37646,0.19962 0.63211,0.44744 0.82989,0.80447 0.15438,0.27869 0.17678,0.37994 0.17678,0.79913 0,0.41918 -0.0224,0.52043 -0.17678,0.79913 -0.32523,0.5871 -0.83751,0.91676 -1.47322,0.94803 -0.2145,0.0105 -0.47465,-0.007 -0.57812,-0.0389 z M 80.04,72.090009 c 0,-1.78 -0.0209,-2.73 -0.06,-2.73 -0.0399,0 -0.0601,-5.855217 -0.0603,-17.444987 0,-11.72249 -0.0205,-17.51389 -0.0618,-17.655 -0.0457,-0.15634 -0.51711,-0.67406 -1.84467,-2.02605 l -1.78324,-1.81604 -12.21,2.4e-4 -12.21,2.4e-4 -1.45993,1.4708 -1.45994,1.47081 -3.07404,0 c -1.9193,0 -3.20779,0.0241 -3.43007,0.0641 -0.98198,0.17688 -1.92255,0.89928 -2.36185,1.814 -0.12992,0.27053 -0.25451,0.59312 -0.27687,0.71687 l -0.0406,0.225 -1.23396,0 -1.23396,0 -0.90679,0.9 -0.90678,0.9 -2.59258,0 -2.59258,0 0,3.21 0,3.21 2.85,0 2.85,0 0,-2.65428 0,-2.65427 0.88425,-0.88573 0.88425,-0.88572 1.00098,0 1.00099,0 0.0401,0.195 c 0.0221,0.10725 0.14579,0.41633 0.27496,0.68686 0.43625,0.91362 1.37747,1.63693 2.36049,1.81401 0.48506,0.0874 7.4429,0.0874 7.92796,0 0.58711,-0.10576 1.28178,-0.4783 1.73269,-0.92921 1.62202,-1.62202 1.16646,-4.37148 -0.88919,-5.36647 -0.27293,-0.1321 -0.54152,-0.24019 -0.59686,-0.24019 -0.0553,0 -0.10062,-0.0199 -0.10062,-0.0443 0,-0.0244 0.41142,-0.45637 0.91427,-0.96 l 0.91428,-0.91571 11.73072,-0.003 11.73073,-0.003 1.51345,1.54775 1.51345,1.54774 0.002,17.355 c 10e-4,11.53104 -0.0186,17.354997 -0.0584,17.354997 -0.0391,0 -0.06,0.95 -0.06,2.73 l 0,2.73 0.69,0 0.69,0 0,-2.73 z M 45.92188,38.458262 c -0.52925,-0.16348 -1.08165,-0.73886 -1.22774,-1.2788 -0.15391,-0.56887 0.0793,-1.32809 0.52931,-1.72321 0.38967,-0.34213 0.66223,-0.44416 1.18655,-0.44416 0.38163,0 0.53192,0.0275 0.73333,0.13433 0.37646,0.19962 0.63211,0.44744 0.82989,0.80447 0.15438,0.27869 0.17678,0.37994 0.17678,0.79913 0,0.41918 -0.0224,0.52043 -0.17678,0.79913 -0.32523,0.5871 -0.83751,0.91676 -1.47322,0.94803 -0.2145,0.0105 -0.47465,-0.007 -0.57812,-0.0389 z M 82.92,72.090009 c 0,-1.78 -0.0209,-2.73 -0.06,-2.73 -0.0392,0 -0.0595,-0.96401 -0.0585,-2.77499 l 0.002,-2.774997 1.20418,-1.245 1.20418,-1.245 5.97974,0 c 3.81387,0 6.05565,-0.0218 6.18931,-0.0601 0.16394,-0.047 1.24813,-1.09726 4.97961,-4.82369 4.66199,-4.65568 4.7769,-4.76515 5.07329,-4.83306 0.96571,-0.22127 1.75128,-1.12269 1.88514,-2.16315 0.0318,-0.2475 0.0579,-1.5165 0.0579,-2.82 0,-1.3035 -0.0261,-2.5725 -0.0579,-2.82 -0.11146,-0.86636 -0.64329,-1.60782 -1.43161,-1.99591 -0.3754,-0.18481 -0.42739,-0.19409 -1.08679,-0.19409 -0.65939,0 -0.71138,0.009 -1.08678,0.19409 -0.50351,0.24788 -0.96124,0.70562 -1.20912,1.20912 l -0.1941,0.39427 0,3.21252 0,3.21252 0.1917,0.38874 c 0.2133,0.43254 0.56499,0.82952 0.95273,1.07542 l 0.25652,0.16268 -4.36063,4.36032 -4.36062,4.36032 -6.07879,0 c -3.49829,0 -6.1217,0.023 -6.17985,0.0541 -0.0556,0.0298 -0.76931,0.7439 -1.58606,1.58696 l -1.485,1.53282 0,3.003047 c 0,1.96203 -0.0208,3.00304 -0.06,3.00304 -0.0391,0 -0.06,0.95 -0.06,2.73 l 0,2.73 0.69,0 0.69,0 0,-2.73 z m 23.35178,-23.950797 c -0.55674,-0.19693 -1.03178,-0.88256 -1.03178,-1.48919 0,-0.8386 0.75141,-1.59 1.59,-1.59 0.83859,0 1.59,0.7514 1.59,1.59 0,0.40913 -0.16641,0.79069 -0.48286,1.10714 -0.45544,0.45544 -1.06349,0.59494 -1.66536,0.38205 z M 85.74,72.090009 c 0,-1.78 -0.0209,-2.73 -0.06,-2.73 -0.0386,0 -0.06,-0.61474 -0.06,-1.72424 l 0,-1.72425 0.85423,-0.85575 0.85422,-0.85575 7.53117,0 c 4.50417,0 7.60997,-0.0226 7.72722,-0.0562 0.14623,-0.0419 1.78171,-1.6311 6.43734,-6.255 l 6.2413,-6.19878 0.61884,-0.0326 c 0.53691,-0.0283 0.67032,-0.058 1.00778,-0.2241 0.78273,-0.38533 1.31516,-1.12942 1.4263,-1.99329 0.0318,-0.2475 0.0579,-1.5165 0.0579,-2.82 0,-1.3035 -0.026,-2.5725 -0.0579,-2.82 -0.11146,-0.86636 -0.64329,-1.60781 -1.43161,-1.9959 -0.37541,-0.18481 -0.4274,-0.1941 -1.08679,-0.1941 -0.65939,0 -0.71138,0.009 -1.08679,0.1941 -0.5035,0.24787 -0.96124,0.70561 -1.20912,1.20912 l -0.19409,0.39426 0,3.21252 0,3.21253 0.1917,0.38873 c 0.10543,0.21381 0.30676,0.50825 0.44739,0.65432 l 0.2557,0.26558 -5.9974,5.95719 -5.99739,5.9572 -7.67833,0.002 -7.67833,0.002 -1.18667,1.18667 -1.18667,1.18667 0,1.96333 c 0,1.26888 -0.0212,1.96333 -0.06,1.96333 -0.0391,0 -0.06,0.95 -0.06,2.73 l 0,2.73 0.69,0 0.69,0 0,-2.73 z m 29.53178,-23.950797 c -0.55674,-0.19693 -1.03178,-0.88256 -1.03178,-1.48919 0,-0.8386 0.75141,-1.59 1.59,-1.59 0.83859,0 1.59,0.7514 1.59,1.59 0,0.40913 -0.16641,0.79069 -0.48286,1.10714 -0.45544,0.45544 -1.06349,0.59494 -1.66536,0.38205 z M 88.56,72.090009 l 0,-2.73 -0.69,0 -0.69,0 0,2.73 0,2.73 0.69,0 0.69,0 0,-2.73 z m -16.92,-0.9 c 0,-1.58666 -0.012,-1.83 -0.09,-1.83 -0.0793,0 -0.09,-0.61847 -0.0903,-5.204987 0,-3.20814 -0.0228,-5.28557 -0.059,-5.415 -0.0466,-0.16692 -1.53302,-1.68402 -7.24525,-7.395 l -7.18657,-7.185 -2.95441,0 c -2.82894,0 -2.95441,-0.005 -2.95441,-0.11042 0,-0.21473 -0.36562,-0.83806 -0.67028,-1.14272 -0.17063,-0.17063 -0.485,-0.39548 -0.70294,-0.50277 l -0.39426,-0.19409 -3.21252,0 -3.21252,0 -0.39426,0.19409 c -0.50351,0.24788 -0.96125,0.70561 -1.20913,1.20912 -0.18481,0.3754 -0.19409,0.42739 -0.19409,1.08679 0,0.65939 0.009,0.71138 0.19409,1.08678 0.3881,0.78833 1.12955,1.32015 1.99591,1.43162 0.58324,0.075 5.05579,0.0753 5.63329,3.6e-4 0.73815,-0.0958 1.30962,-0.42968 1.75882,-1.02752 0.12466,-0.1659 0.27376,-0.43429 0.33135,-0.59643 l 0.10471,-0.29481 2.70082,0 2.70082,0 6.91509,6.9149 6.9151,6.9149 0,5.115097 c 0,4.50675 -0.0107,5.11509 -0.09,5.11509 -0.078,0 -0.09,0.24334 -0.09,1.83 l 0,1.83 0.75,0 0.75,0 0,-1.83 z M 45.55179,46.219212 C 44.99504,46.022282 44.52,45.336652 44.52,44.730022 c 0,-0.8386 0.75141,-1.59 1.59,-1.59 0.83859,0 1.59,0.7514 1.59,1.59 0,0.40913 -0.16641,0.79069 -0.48286,1.10714 -0.45544,0.45544 -1.06349,0.59494 -1.66535,0.38205 z M 91.44,71.190009 l 0,-1.83 -0.75,0 -0.75,0 0,1.83 0,1.83 0.75,0 0.75,0 0,-1.83 z"
     id="path3469"
     inkscape:connector-curvature="0"
     inkscape:export-xdpi="1000"
     inkscape:export-ydpi="1000" />
  <text
     xml:space="preserve"
     style="font-style:normal;font-weight:normal;font-size:40px;line-height:125%;font-family:sans-serif;letter-spacing:0px;word-spacing:0px;fill:#ffffff;fill-opacity:1;stroke:none;stroke-width:1px;stroke-linecap:butt;stroke-linejoin:miter;stroke-opacity:1"
     x="118.54975"
     y="49.748993"
     id="text3425-6-3-3-0"
     sodipodi:linespacing="125%"
     inkscape:export-xdpi="1000"
     inkscape:export-ydpi="1000"><tspan
       sodipodi:role="line"
       id="tspan3427-4-8-3-6"
       x="118.54975"
       y="49.748993"
       style="font-style:normal;font-variant:normal;font-weight:normal;font-stretch:normal;font-size:2.5px;line-height:125%;font-family:sans-serif;-inkscape-font-specification:'sans-serif, Normal';text-align:start;writing-mode:lr-tb;text-anchor:start">GND</tspan></text>
  <text
     xml:space="preserve"
     style="font-style:normal;font-weight:normal;font-size:40px;line-height:125%;font-family:sans-serif;letter-spacing:0px;word-spacing:0px;fill:#ffffff;fill-opacity:1;stroke:none;stroke-width:1px;stroke-linecap:butt;stroke-linejoin:miter;stroke-opacity:1"
     x="135.40646"
     y="49.567871"
     id="text3425-6-3-3-0-1-7"
     sodipodi:linespacing="125%"
     inkscape:export-xdpi="1000"
     inkscape:export-ydpi="1000"><tspan
       sodipodi:role="line"
       id="tspan3427-4-8-3-6-1-5"
       x="135.40646"
       y="49.567871"
       style="font-style:normal;font-variant:normal;font-weight:normal;font-stretch:normal;font-size:2.5px;line-height:125%;font-family:sans-serif;-inkscape-font-specification:'sans-serif, Normal';text-align:start;writing-mode:lr-tb;text-anchor:start">5V</tspan></text>
  <text
     xml:space="preserve"
     style="font-style:normal;font-weight:normal;font-size:40px;line-height:125%;font-family:sans-serif;letter-spacing:0px;word-spacing:0px;fill:#ffffff;fill-opacity:1;stroke:none;stroke-width:1px;stroke-linecap:butt;stroke-linejoin:miter;stroke-opacity:1"
     x="118.19578"
     y="66.865593"
     id="text3425-6-3-3-0-7"
     sodipodi:linespacing="125%"
     inkscape:export-xdpi="1000"
     inkscape:export-ydpi="1000"><tspan
       sodipodi:role="line"
       id="tspan3427-4-8-3-6-4"
       x="118.19578"
       y="66.865593"
       style="font-style:normal;font-variant:normal;font-weight:normal;font-stretch:normal;font-size:2.5px;line-height:125%;font-family:sans-serif;-inkscape-font-specification:'sans-serif, Normal';text-align:start;writing-mode:lr-tb;text-anchor:start">GND</tspan></text>
  <text
     xml:space="preserve"
     style="font-style:normal;font-weight:normal;font-size:40px;line-height:125%;font-family:sans-serif;letter-spacing:0px;word-spacing:0px;fill:#ffffff;fill-opacity:1;stroke:none;stroke-width:1px;stroke-linecap:butt;stroke-linejoin:miter;stroke-opacity:1"
     x="135.61462"
     y="66.497101"
     id="text3425-6-3-3-0-1-7-2"
     sodipodi:linespacing="125%"
     inkscape:export-xdpi="1000"
     inkscape:export-ydpi="1000"><tspan
       sodipodi:role="line"
       id="tspan3427-4-8-3-6-1-5-3"
       x="135.61462"
       y="66.497101"
       style="font-style:normal;font-variant:normal;font-weight:normal;font-stretch:normal;font-size:2.5px;line-height:125%;font-family:sans-serif;-inkscape-font-specification:'sans-serif, Normal';text-align:start;writing-mode:lr-tb;text-anchor:start">5V</tspan></text>
  <text
     xml:space="preserve"
     style="font-style:normal;font-weight:normal;font-size:40px;line-height:125%;font-family:sans-serif;letter-spacing:0px;word-spacing:0px;fill:#ffffff;fill-opacity:1;stroke:none;stroke-width:1px;stroke-linecap:butt;stroke-linejoin:miter;stroke-opacity:1"
     x="132.50217"
     y="30.920654"
     id="text3425-6-3-3-0-1-7-9"
     sodipodi:linespacing="125%"
     inkscape:export-xdpi="1000"
     inkscape:export-ydpi="1000"><tspan
       sodipodi:role="line"
       id="tspan3427-4-8-3-6-1-5-9"
       x="132.50217"
       y="30.920654"
       style="font-style:normal;font-variant:normal;font-weight:normal;font-stretch:normal;font-size:2.5px;line-height:125%;font-family:sans-serif;-inkscape-font-specification:'sans-serif, Normal';text-align:start;writing-mode:lr-tb;text-anchor:start">5V</tspan></text>
  <text
     xml:space="preserve"
     style="font-style:normal;font-weight:normal;font-size:40px;line-height:125%;font-family:sans-serif;letter-spacing:0px;word-spacing:0px;fill:#ffffff;fill-opacity:1;stroke:none;stroke-width:1px;stroke-linecap:butt;stroke-linejoin:miter;stroke-opacity:1"
     x="116.11387"
     y="33.069206"
     id="text3425-6-3-3-0-3"
     sodipodi:linespacing="125%"
     inkscape:export-xdpi="1000"
     inkscape:export-ydpi="1000"><tspan
       sodipodi:role="line"
       id="tspan3427-4-8-3-6-8"
       x="116.11387"
       y="33.069206"
       style="font-style:normal;font-variant:normal;font-weight:normal;font-stretch:normal;font-size:2.5px;line-height:125%;font-family:sans-serif;-inkscape-font-specification:'sans-serif, Normal';text-align:start;writing-mode:lr-tb;text-anchor:start">GND</tspan></text>
  <text
     xml:space="preserve"
     style="font-style:normal;font-weight:normal;font-size:40px;line-height:125%;font-family:sans-serif;letter-spacing:0px;word-spacing:0px;fill:#ffffff;fill-opacity:1;stroke:none;stroke-width:1px;stroke-linecap:butt;stroke-linejoin:miter;stroke-opacity:1"
     x="8.399374"
     y="139.99791"
     id="text3425-6-3-3-0-8"
     sodipodi:linespacing="125%"
     inkscape:export-xdpi="1000"
     inkscape:export-ydpi="1000"><tspan
       sodipodi:role="line"
       id="tspan3427-4-8-3-6-5"
       x="8.399374"
       y="139.99791"
       style="font-style:normal;font-variant:normal;font-weight:normal;font-stretch:normal;font-size:2.5px;line-height:125%;font-family:sans-serif;-inkscape-font-specification:'sans-serif, Normal';text-align:start;writing-mode:lr-tb;text-anchor:start">GND</tspan></text>
  <text
     xml:space="preserve"
     style="font-style:normal;font-weight:normal;font-size:40px;line-height:125%;font-family:sans-serif;letter-spacing:0px;word-spacing:0px;fill:#ffffff;fill-opacity:1;stroke:none;stroke-width:1px;stroke-linecap:butt;stroke-linejoin:miter;stroke-opacity:1"
     x="104.53562"
     y="102.51539"
     id="text3425-6-3-3-5"
     sodipodi:linespacing="125%"
     inkscape:export-xdpi="1000"
     inkscape:export-ydpi="1000"><tspan
       sodipodi:role="line"
       id="tspan3427-4-8-3-5"
       x="104.53562"
       y="102.51539"
       style="font-style:normal;font-variant:normal;font-weight:normal;font-stretch:normal;font-size:2.5px;line-height:125%;font-family:sans-serif;-inkscape-font-specification:'sans-serif, Normal';text-align:start;writing-mode:lr-tb;text-anchor:start">MISO</tspan></text>
  <text
     xml:space="preserve"
     style="font-style:normal;font-weight:normal;font-size:40px;line-height:125%;font-family:sans-serif;letter-spacing:0px;word-spacing:0px;fill:#ffffff;fill-opacity:1;stroke:none;stroke-width:1px;stroke-linecap:butt;stroke-linejoin:miter;stroke-opacity:1"
     x="104.53562"
     y="111.74358"
     id="text3425-6-3-3-09"
     sodipodi:linespacing="125%"
     inkscape:export-xdpi="1000"
     inkscape:export-ydpi="1000"><tspan
       sodipodi:role="line"
       id="tspan3427-4-8-3-3"
       x="104.53562"
       y="111.74358"
       style="font-style:normal;font-variant:normal;font-weight:normal;font-stretch:normal;font-size:2.5px;line-height:125%;font-family:sans-serif;-inkscape-font-specification:'sans-serif, Normal';text-align:start;writing-mode:lr-tb;text-anchor:start">MOSI</tspan></text>
  <text
     xml:space="preserve"
     style="font-style:normal;font-weight:normal;font-size:40px;line-height:125%;font-family:sans-serif;letter-spacing:0px;word-spacing:0px;fill:#ffffff;fill-opacity:1;stroke:none;stroke-width:1px;stroke-linecap:butt;stroke-linejoin:miter;stroke-opacity:1"
     x="104.53562"
     y="120.69076"
     id="text3425-6-3-3-4"
     sodipodi:linespacing="125%"
     inkscape:export-xdpi="1000"
     inkscape:export-ydpi="1000"><tspan
       sodipodi:role="line"
       id="tspan3427-4-8-3-7"
       x="104.53562"
       y="120.69076"
       style="font-style:normal;font-variant:normal;font-weight:normal;font-stretch:normal;font-size:2.5px;line-height:125%;font-family:sans-serif;-inkscape-font-specification:'sans-serif, Normal';text-align:start;writing-mode:lr-tb;text-anchor:start">SCK</tspan></text>
  <text
     xml:space="preserve"
     style="font-style:normal;font-weight:normal;font-size:40px;line-height:125%;font-family:sans-serif;letter-spacing:0px;word-spacing:0px;fill:#ffffff;fill-opacity:1;stroke:none;stroke-width:1px;stroke-linecap:butt;stroke-linejoin:miter;stroke-opacity:1"
     x="68.822762"
     y="128.88148"
     id="text3425"
     sodipodi:linespacing="125%"
     inkscape:export-xdpi="1000"
     inkscape:export-ydpi="1000"><tspan
       sodipodi:role="line"
       id="tspan3427"
       x="68.822762"
       y="128.88148"
       style="font-style:normal;font-variant:normal;font-weight:normal;font-stretch:normal;font-size:2.5px;line-height:125%;font-family:sans-serif;-inkscape-font-specification:'sans-serif, Normal';text-align:start;writing-mode:lr-tb;text-anchor:start">M9</tspan></text>
  <text
     xml:space="preserve"
     style="font-style:normal;font-weight:normal;font-size:40px;line-height:125%;font-family:sans-serif;letter-spacing:0px;word-spacing:0px;fill:#ffffff;fill-opacity:1;stroke:none;stroke-width:1px;stroke-linecap:butt;stroke-linejoin:miter;stroke-opacity:1"
     x="77.703133"
     y="128.88148"
     id="text3425-6"
     sodipodi:linespacing="125%"
     inkscape:export-xdpi="1000"
     inkscape:export-ydpi="1000"><tspan
       sodipodi:role="line"
       id="tspan3427-4"
       x="77.703133"
       y="128.88148"
       style="font-style:normal;font-variant:normal;font-weight:normal;font-stretch:normal;font-size:2.5px;line-height:125%;font-family:sans-serif;-inkscape-font-specification:'sans-serif, Normal';text-align:start;writing-mode:lr-tb;text-anchor:start">M10</tspan></text>
  <text
     xml:space="preserve"
     style="font-style:normal;font-weight:normal;font-size:40px;line-height:125%;font-family:sans-serif;letter-spacing:0px;word-spacing:0px;fill:#ffffff;fill-opacity:1;stroke:none;stroke-width:1px;stroke-linecap:butt;stroke-linejoin:miter;stroke-opacity:1"
     x="96.46833"
     y="128.91689"
     id="text3425-6-3"
     sodipodi:linespacing="125%"
     inkscape:export-xdpi="1000"
     inkscape:export-ydpi="1000"><tspan
       sodipodi:role="line"
       id="tspan3427-4-8"
       x="96.46833"
       y="128.91689"
       style="font-style:normal;font-variant:normal;font-weight:normal;font-stretch:normal;font-size:2.5px;line-height:125%;font-family:sans-serif;-inkscape-font-specification:'sans-serif, Normal';text-align:start;writing-mode:lr-tb;text-anchor:start">M11</tspan></text>
  <text
     xml:space="preserve"
     style="font-style:normal;font-weight:normal;font-size:40px;line-height:125%;font-family:sans-serif;letter-spacing:0px;word-spacing:0px;fill:#ffffff;fill-opacity:1;stroke:none;stroke-width:1px;stroke-linecap:butt;stroke-linejoin:miter;stroke-opacity:1"
     x="84.106544"
     y="40.550461"
     id="text3425-6-3-3-0-1-7-9-8"
     sodipodi:linespacing="125%"
     inkscape:export-xdpi="1000"
     inkscape:export-ydpi="1000"><tspan
       sodipodi:role="line"
       id="tspan3427-4-8-3-6-1-5-9-7"
       x="84.106544"
       y="40.550461"
       style="font-style:normal;font-variant:normal;font-weight:normal;font-stretch:normal;font-size:2.5px;line-height:125%;font-family:sans-serif;-inkscape-font-specification:'sans-serif, Normal';text-align:start;writing-mode:lr-tb;text-anchor:start">5V</tspan></text>
  <text
     xml:space="preserve"
     style="font-style:normal;font-weight:normal;font-size:40px;line-height:125%;font-family:sans-serif;letter-spacing:0px;word-spacing:0px;fill:#ffffff;fill-opacity:1;stroke:none;stroke-width:1px;stroke-linecap:butt;stroke-linejoin:miter;stroke-opacity:1"
     x="93.282082"
     y="40.56694"
     id="text3425-6-3-3-0-3-7"
     sodipodi:linespacing="125%"
     inkscape:export-xdpi="1000"
     inkscape:export-ydpi="1000"><tspan
       sodipodi:role="line"
       id="tspan3427-4-8-3-6-8-3"
       x="93.282082"
       y="40.56694"
       style="font-style:normal;font-variant:normal;font-weight:normal;font-stretch:normal;font-size:2.5px;line-height:125%;font-family:sans-serif;-inkscape-font-specification:'sans-serif, Normal';text-align:start;writing-mode:lr-tb;text-anchor:start">GND</tspan></text>
  <text
     xml:space="preserve"
     style="font-style:normal;font-weight:normal;font-size:40px;line-height:125%;font-family:sans-serif;letter-spacing:0px;word-spacing:0px;fill:#ffffff;fill-opacity:1;stroke:none;stroke-width:1px;stroke-linecap:butt;stroke-linejoin:miter;stroke-opacity:1"
     x="104.2125"
     y="40.56694"
     id="text3425-6-3-3-0-3-7-0"
     sodipodi:linespacing="125%"
     inkscape:export-xdpi="1000"
     inkscape:export-ydpi="1000"><tspan
       sodipodi:role="line"
       id="tspan3427-4-8-3-6-8-3-5"
       x="104.2125"
       y="40.56694"
       style="font-style:normal;font-variant:normal;font-weight:normal;font-stretch:normal;font-size:2.5px;line-height:125%;font-family:sans-serif;-inkscape-font-specification:'sans-serif, Normal';text-align:start;writing-mode:lr-tb;text-anchor:start">SCL</tspan></text>
  <text
     xml:space="preserve"
     style="font-style:normal;font-weight:normal;font-size:40px;line-height:125%;font-family:sans-serif;letter-spacing:0px;word-spacing:0px;fill:#ffffff;fill-opacity:1;stroke:none;stroke-width:1px;stroke-linecap:butt;stroke-linejoin:miter;stroke-opacity:1"
     x="112.99986"
     y="40.56694"
     id="text3425-6-3-3-0-3-7-1"
     sodipodi:linespacing="125%"
     inkscape:export-xdpi="1000"
     inkscape:export-ydpi="1000"><tspan
       sodipodi:role="line"
       id="tspan3427-4-8-3-6-8-3-1"
       x="112.99986"
       y="40.56694"
       style="font-style:normal;font-variant:normal;font-weight:normal;font-stretch:normal;font-size:2.5px;line-height:125%;font-family:sans-serif;-inkscape-font-specification:'sans-serif, Normal';text-align:start;writing-mode:lr-tb;text-anchor:start">SDA</tspan></text>
  <text
     xml:space="preserve"
     style="font-style:normal;font-weight:normal;font-size:40px;line-height:125%;font-family:sans-serif;letter-spacing:0px;word-spacing:0px;fill:#ffffff;fill-opacity:1;stroke:none;stroke-width:1px;stroke-linecap:butt;stroke-linejoin:miter;stroke-opacity:1"
     x="4.0549068"
     y="130.53987"
     id="text3425-6-3-3-0-8-9-6-4-2"
     sodipodi:linespacing="125%"
     inkscape:export-xdpi="1000"
     inkscape:export-ydpi="1000"><tspan
       sodipodi:role="line"
       id="tspan3427-4-8-3-6-5-4-1-4-6"
       x="4.0549068"
       y="130.53987"
       style="font-style:normal;font-variant:normal;font-weight:normal;font-stretch:normal;font-size:2.5px;line-height:125%;font-family:sans-serif;-inkscape-font-specification:'sans-serif, Normal';text-align:start;writing-mode:lr-tb;text-anchor:start">VCC Battery</tspan></text>
  <text
     xml:space="preserve"
     style="font-style:normal;font-weight:normal;font-size:40px;line-height:125%;font-family:sans-serif;letter-spacing:0px;word-spacing:0px;fill:#ffffff;fill-opacity:1;stroke:none;stroke-width:1px;stroke-linecap:butt;stroke-linejoin:miter;stroke-opacity:1"
     x="52.49012"
     y="100.21435"
     id="text3425-4"
     sodipodi:linespacing="125%"
     inkscape:export-xdpi="1000"
     inkscape:export-ydpi="1000"><tspan
       sodipodi:role="line"
       id="tspan3427-2"
       x="52.49012"
       y="100.21435"
       style="font-style:normal;font-variant:normal;font-weight:normal;font-stretch:normal;font-size:2.5px;line-height:125%;font-family:sans-serif;-inkscape-font-specification:'sans-serif, Normal';text-align:start;writing-mode:lr-tb;text-anchor:start">RP</tspan></text>
  <text
     xml:space="preserve"
     style="font-style:normal;font-weight:normal;font-size:40px;line-height:125%;font-family:sans-serif;letter-spacing:0px;word-spacing:0px;fill:#ffffff;fill-opacity:1;stroke:none;stroke-width:1px;stroke-linecap:butt;stroke-linejoin:miter;stroke-opacity:1"
     x="52.515755"
     y="109.39573"
     id="text3425-4-6"
     sodipodi:linespacing="125%"
     inkscape:export-xdpi="1000"
     inkscape:export-ydpi="1000"><tspan
       sodipodi:role="line"
       id="tspan3427-2-6"
       x="52.515755"
       y="109.39573"
       style="font-style:normal;font-variant:normal;font-weight:normal;font-stretch:normal;font-size:2.5px;line-height:125%;font-family:sans-serif;-inkscape-font-specification:'sans-serif, Normal';text-align:start;writing-mode:lr-tb;text-anchor:start">RY</tspan></text>
  <text
     xml:space="preserve"
     style="font-style:normal;font-weight:normal;font-size:40px;line-height:125%;font-family:sans-serif;letter-spacing:0px;word-spacing:0px;fill:#ffffff;fill-opacity:1;stroke:none;stroke-width:1px;stroke-linecap:butt;stroke-linejoin:miter;stroke-opacity:1"
     x="51.905403"
     y="118.48341"
     id="text3425-4-9"
     sodipodi:linespacing="125%"
     inkscape:export-xdpi="1000"
     inkscape:export-ydpi="1000"><tspan
       sodipodi:role="line"
       id="tspan3427-2-2"
       x="51.905403"
       y="118.48341"
       style="font-style:normal;font-variant:normal;font-weight:normal;font-stretch:normal;font-size:2.5px;line-height:125%;font-family:sans-serif;-inkscape-font-specification:'sans-serif, Normal';text-align:start;writing-mode:lr-tb;text-anchor:start">RA1</tspan></text>
  <text
     xml:space="preserve"
     style="font-style:normal;font-weight:normal;font-size:40px;line-height:125%;font-family:sans-serif;letter-spacing:0px;word-spacing:0px;fill:#ffffff;fill-opacity:1;stroke:none;stroke-width:1px;stroke-linecap:butt;stroke-linejoin:miter;stroke-opacity:1"
     x="56.589546"
     y="60.07959"
     id="text3425-6-3-3-8"
     sodipodi:linespacing="125%"
     inkscape:export-xdpi="1000"
     inkscape:export-ydpi="1000"><tspan
       sodipodi:role="line"
       id="tspan3427-4-8-3-8"
       x="56.589546"
       y="60.07959"
       style="font-style:normal;font-variant:normal;font-weight:normal;font-stretch:normal;font-size:2.5px;line-height:125%;font-family:sans-serif;-inkscape-font-specification:'sans-serif, Normal';text-align:start;writing-mode:lr-tb;text-anchor:start">M3</tspan></text>
  <text
     xml:space="preserve"
     style="font-style:normal;font-weight:normal;font-size:40px;line-height:125%;font-family:sans-serif;letter-spacing:0px;word-spacing:0px;fill:#ffffff;fill-opacity:1;stroke:none;stroke-width:1px;stroke-linecap:butt;stroke-linejoin:miter;stroke-opacity:1"
     x="56.572487"
     y="38.986809"
     id="text3425-6-3-3-0-3-7-7-4"
     sodipodi:linespacing="125%"
     inkscape:export-xdpi="1000"
     inkscape:export-ydpi="1000"><tspan
       sodipodi:role="line"
       id="tspan3427-4-8-3-6-8-3-6-9"
       x="56.572487"
       y="38.986809"
       style="font-style:normal;font-variant:normal;font-weight:normal;font-stretch:normal;font-size:2.5px;line-height:125%;font-family:sans-serif;-inkscape-font-specification:'sans-serif, Normal';text-align:start;writing-mode:lr-tb;text-anchor:start">TX</tspan></text>
  <text
     xml:space="preserve"
     style="font-style:normal;font-weight:normal;font-size:40px;line-height:125%;font-family:sans-serif;letter-spacing:0px;word-spacing:0px;fill:#ffffff;fill-opacity:1;stroke:none;stroke-width:1px;stroke-linecap:butt;stroke-linejoin:miter;stroke-opacity:1"
     x="66.628517"
     y="38.986809"
     id="text3425-6-3-3-0-3-7-7-41"
     sodipodi:linespacing="125%"
     inkscape:export-xdpi="1000"
     inkscape:export-ydpi="1000"><tspan
       sodipodi:role="line"
       id="tspan3427-4-8-3-6-8-3-6-3"
       x="66.628517"
       y="38.986809"
       style="font-style:normal;font-variant:normal;font-weight:normal;font-stretch:normal;font-size:2.5px;line-height:125%;font-family:sans-serif;-inkscape-font-specification:'sans-serif, Normal';text-align:start;writing-mode:lr-tb;text-anchor:start">RX</tspan></text>
  <text
     xml:space="preserve"
     style="font-style:normal;font-weight:normal;font-size:40px;line-height:125%;font-family:sans-serif;letter-spacing:0px;word-spacing:0px;fill:#ffffff;fill-opacity:1;stroke:none;stroke-width:1px;stroke-linecap:butt;stroke-linejoin:miter;stroke-opacity:1"
     x="51.193886"
     y="51.315216"
     id="text3425-6-3-3-8-9"
     sodipodi:linespacing="125%"
     inkscape:export-xdpi="1000"
     inkscape:export-ydpi="1000"><tspan
       sodipodi:role="line"
       id="tspan3427-4-8-3-8-8"
       x="51.193886"
       y="51.315216"
       style="font-style:normal;font-variant:normal;font-weight:normal;font-stretch:normal;font-size:2.5px;line-height:125%;font-family:sans-serif;-inkscape-font-specification:'sans-serif, Normal';text-align:start;writing-mode:lr-tb;text-anchor:start">RR</tspan></text>
  <text
     xml:space="preserve"
     style="font-style:normal;font-weight:normal;font-size:40px;line-height:125%;font-family:sans-serif;letter-spacing:0px;word-spacing:0px;fill:#ffffff;fill-opacity:1;stroke:none;stroke-width:1px;stroke-linecap:butt;stroke-linejoin:miter;stroke-opacity:1"
     x="50.901985"
     y="42.321213"
     id="text3425-6-3-3-8-0"
     sodipodi:linespacing="125%"
     inkscape:export-xdpi="1000"
     inkscape:export-ydpi="1000"><tspan
       sodipodi:role="line"
       id="tspan3427-4-8-3-8-7"
       x="50.901985"
       y="42.321213"
       style="font-style:normal;font-variant:normal;font-weight:normal;font-stretch:normal;font-size:2.5px;line-height:125%;font-family:sans-serif;-inkscape-font-specification:'sans-serif, Normal';text-align:start;writing-mode:lr-tb;text-anchor:start">RT</tspan></text>
  <text
     xml:space="preserve"
     style="font-style:normal;font-weight:normal;font-size:40px;line-height:125%;font-family:sans-serif;letter-spacing:0px;word-spacing:0px;fill:#ffffff;fill-opacity:1;stroke:none;stroke-width:1px;stroke-linecap:butt;stroke-linejoin:miter;stroke-opacity:1"
     x="40.759865"
     y="32.248497"
     id="text3425-6-3-3-0-3-7-7"
     sodipodi:linespacing="125%"
     inkscape:export-xdpi="1000"
     inkscape:export-ydpi="1000"><tspan
       sodipodi:role="line"
       id="tspan3427-4-8-3-6-8-3-6"
       x="40.759865"
       y="32.248497"
       style="font-style:normal;font-variant:normal;font-weight:normal;font-stretch:normal;font-size:2.5px;line-height:125%;font-family:sans-serif;-inkscape-font-specification:'sans-serif, Normal';text-align:start;writing-mode:lr-tb;text-anchor:start">RST</tspan></text>
</svg>
